<svg width="138" height="52" viewBox="0 0 138 52" fill="none" xmlns="http://www.w3.org/2000/svg">
<rect width="138" height="52" rx="26" fill="#E6E8EC"/>
<path d="M39.3877 20.0851C39.6193 19.5484 40.3803 19.5484 40.6119 20.0851L42.0653 23.4531C42.1634 23.6803 42.3793 23.8345 42.626 23.8536L46.3531 24.1416C46.9511 24.1878 47.1887 24.9385 46.7262 25.3204L43.9233 27.6346C43.7256 27.7978 43.639 28.0599 43.7006 28.3088L44.5632 31.7944C44.7051 32.3676 44.0867 32.8286 43.5779 32.529L40.338 30.6217C40.1293 30.4988 39.8703 30.4988 39.6616 30.6217L36.4218 32.529C35.9129 32.8286 35.2946 32.3676 35.4364 31.7944L36.2991 28.3088C36.3606 28.0599 36.2741 27.7978 36.0764 27.6346L33.2734 25.3204C32.8109 24.9385 33.0485 24.1878 33.6465 24.1416L37.3736 23.8536C37.6204 23.8345 37.8363 23.6803 37.9344 23.4531L39.3877 20.0851Z" fill="#23262F"/>
<path d="M61.088 31V19.8H63.136V29.4H68.096V31H61.088ZM74.1329 31.192C73.0129 31.192 72.0315 30.9467 71.1889 30.456C70.3569 29.9653 69.7009 29.288 69.2209 28.424C68.7515 27.5493 68.5169 26.5413 68.5169 25.4C68.5169 24.2587 68.7515 23.256 69.2209 22.392C69.7009 21.5173 70.3569 20.8347 71.1889 20.344C72.0315 19.8533 73.0129 19.608 74.1329 19.608C75.2422 19.608 76.2182 19.8533 77.0609 20.344C77.9035 20.8347 78.5595 21.5173 79.0289 22.392C79.4982 23.256 79.7329 24.2587 79.7329 25.4C79.7329 26.5413 79.4982 27.5493 79.0289 28.424C78.5595 29.288 77.9035 29.9653 77.0609 30.456C76.2182 30.9467 75.2422 31.192 74.1329 31.192ZM74.1329 29.352C75.1995 29.352 76.0475 29 76.6769 28.296C77.3169 27.592 77.6369 26.6267 77.6369 25.4C77.6369 24.1733 77.3169 23.208 76.6769 22.504C76.0475 21.8 75.1995 21.448 74.1329 21.448C73.0662 21.448 72.2129 21.8 71.5729 22.504C70.9329 23.208 70.6129 24.1733 70.6129 25.4C70.6129 26.6267 70.9329 27.592 71.5729 28.296C72.2129 29 73.0662 29.352 74.1329 29.352ZM86.4371 31.192C85.3811 31.192 84.4585 30.952 83.6691 30.472C82.8798 29.992 82.2665 29.3253 81.8291 28.472C81.3918 27.608 81.1731 26.6053 81.1731 25.464C81.1731 24.312 81.3971 23.2987 81.8451 22.424C82.3038 21.5387 82.9491 20.8507 83.7811 20.36C84.6238 19.8587 85.6211 19.608 86.7731 19.608C88.0851 19.608 89.1731 19.9227 90.0371 20.552C90.9011 21.1813 91.4611 22.0507 91.7171 23.16H89.4291C89.2585 22.6373 88.9491 22.232 88.5011 21.944C88.0531 21.6453 87.4771 21.496 86.7731 21.496C85.6531 21.496 84.7891 21.8533 84.1811 22.568C83.5731 23.272 83.2691 24.2427 83.2691 25.48C83.2691 26.7173 83.5678 27.6773 84.1651 28.36C84.7731 29.032 85.5945 29.368 86.6291 29.368C87.6425 29.368 88.4051 29.096 88.9171 28.552C89.4398 27.9973 89.7545 27.272 89.8611 26.376H87.0291V24.84H91.9251V31H90.0371L89.8771 29.528C89.5145 30.0613 89.0611 30.472 88.5171 30.76C87.9731 31.048 87.2798 31.192 86.4371 31.192ZM99.1641 31.192C98.0441 31.192 97.0628 30.9467 96.2201 30.456C95.3881 29.9653 94.7321 29.288 94.2521 28.424C93.7828 27.5493 93.5481 26.5413 93.5481 25.4C93.5481 24.2587 93.7828 23.256 94.2521 22.392C94.7321 21.5173 95.3881 20.8347 96.2201 20.344C97.0628 19.8533 98.0441 19.608 99.1641 19.608C100.273 19.608 101.249 19.8533 102.092 20.344C102.935 20.8347 103.591 21.5173 104.06 22.392C104.529 23.256 104.764 24.2587 104.764 25.4C104.764 26.5413 104.529 27.5493 104.06 28.424C103.591 29.288 102.935 29.9653 102.092 30.456C101.249 30.9467 100.273 31.192 99.1641 31.192ZM99.1641 29.352C100.231 29.352 101.079 29 101.708 28.296C102.348 27.592 102.668 26.6267 102.668 25.4C102.668 24.1733 102.348 23.208 101.708 22.504C101.079 21.8 100.231 21.448 99.1641 21.448C98.0975 21.448 97.2441 21.8 96.6041 22.504C95.9641 23.208 95.6441 24.1733 95.6441 25.4C95.6441 26.6267 95.9641 27.592 96.6041 28.296C97.2441 29 98.0975 29.352 99.1641 29.352Z" fill="#23262F"/>
</svg>
