<svg width="326" height="256" viewBox="0 0 326 256" fill="none" xmlns="http://www.w3.org/2000/svg">
<path d="M314.125 0.125H11.875C5.44492 0.125 0.25 5.31992 0.25 11.75V244.25C0.25 250.68 5.44492 255.875 11.875 255.875H314.125C320.555 255.875 325.75 250.68 325.75 244.25V11.75C325.75 5.31992 320.555 0.125 314.125 0.125ZM99.7891 52.4375C112.613 52.4375 123.039 62.8637 123.039 75.6875C123.039 88.5113 112.613 98.9375 99.7891 98.9375C86.9652 98.9375 76.5391 88.5113 76.5391 75.6875C76.5391 62.8637 86.9652 52.4375 99.7891 52.4375ZM286.479 211.228C285.95 211.672 285.281 211.917 284.59 211.918H41.3734C39.775 211.918 38.4672 210.61 38.4672 209.012C38.4672 208.321 38.7215 207.668 39.1574 207.123L101.024 133.74C102.041 132.505 103.894 132.359 105.129 133.377C105.238 133.486 105.384 133.595 105.493 133.74L141.603 176.607L199.038 108.492C200.055 107.257 201.907 107.111 203.143 108.129C203.252 108.237 203.397 108.346 203.506 108.492L286.915 207.159C287.86 208.358 287.714 210.211 286.479 211.228Z" fill="#777E91"/>
</svg>
